<?xml version="1.0" encoding="UTF-8" standalone="no"?>
<svg width="199px" height="87px" viewBox="0 0 199 87" version="1.1" xmlns="http://www.w3.org/2000/svg" xmlns:xlink="http://www.w3.org/1999/xlink" xmlns:sketch="http://www.bohemiancoding.com/sketch/ns">
    <!-- Generator: Sketch 3.2.2 (9983) - http://www.bohemiancoding.com/sketch -->
    <title>Imported Layers</title>
    <desc>Created with Sketch.</desc>
    <defs></defs>
    <g id="Nav_Responsive" stroke="none" stroke-width="1" fill="none" fill-rule="evenodd" sketch:type="MSPage">
        <g id="Imported-Layers" sketch:type="MSLayerGroup">
            <g id="Group" fill="#ffffff" sketch:type="MSShapeGroup">
                <path d="M30.313,40.487 C31.774,40.487 32.988,39.935 33.815,38.948 L33.815,15.288 C32.988,14.285 31.774,13.724 30.313,13.724 C27.525,13.724 25.561,15.743 25.561,19.02 L25.561,35.241 C25.561,38.518 27.525,40.487 30.313,40.487" id="Fill-2"></path>
                <path d="M71.769,19.019 L71.769,35.241 C71.769,38.518 73.735,40.485 76.521,40.485 C77.982,40.485 79.196,39.935 80.028,38.948 L80.028,15.287 C79.196,14.285 77.982,13.722 76.521,13.722 C73.735,13.722 71.769,15.742 71.769,19.019" id="Fill-3"></path>
                <path d="M80.028,48.332 L80.028,46.417 C78.911,46.716 77.73,46.876 76.521,46.876 C70.185,46.876 64.666,42.724 64.666,35.296 L64.666,18.91 C64.666,11.484 70.185,7.333 76.521,7.333 C77.73,7.333 78.911,7.49 80.028,7.787 L80.028,0.523 L56.69,0.523 L56.69,7.789 C55.577,7.491 54.399,7.333 53.186,7.333 C46.853,7.333 41.336,11.484 41.336,18.911 L41.336,35.296 C41.336,42.726 46.853,46.876 53.186,46.876 C54.399,46.876 55.577,46.716 56.69,46.42 L56.69,48.334 C56.69,53.743 59.63,58.129 63.253,58.129 L85.034,58.129 C85.039,58.036 85.05,57.944 85.059,57.851 C82.174,56.822 80.028,52.956 80.028,48.332 L80.028,48.332 Z M56.69,38.948 C55.861,39.935 54.649,40.487 53.186,40.487 C50.401,40.487 48.436,38.518 48.436,35.241 L48.436,19.02 C48.436,15.743 50.401,13.724 53.186,13.724 C54.649,13.724 55.861,14.285 56.69,15.288 L56.69,38.948 L56.69,38.948 Z" id="Fill-4"></path>
                <path d="M126.294,48.332 L126.294,46.417 C125.181,46.716 124.005,46.876 122.789,46.876 C116.455,46.876 110.941,42.724 110.941,35.296 L110.941,18.91 C110.941,11.484 116.455,7.333 122.789,7.333 C124.005,7.333 125.181,7.49 126.294,7.787 L126.294,0.521 L103.037,0.521 L103.037,7.787 C101.921,7.49 100.743,7.333 99.529,7.333 C93.193,7.333 87.679,11.484 87.679,18.91 L87.679,35.296 C87.679,42.724 93.193,46.876 99.529,46.876 C100.743,46.876 101.921,46.716 103.037,46.417 L103.037,48.332 C103.037,53.743 105.973,58.129 109.594,58.129 L131.632,58.129 C131.636,58.072 131.646,58.015 131.651,57.957 C128.603,57.112 126.294,53.128 126.294,48.332 L126.294,48.332 Z M103.037,38.948 C102.207,39.935 100.993,40.485 99.529,40.485 C96.745,40.485 94.777,38.518 94.777,35.241 L94.777,19.019 C94.777,15.742 96.745,13.722 99.529,13.722 C100.993,13.722 102.207,14.285 103.037,15.287 L103.037,38.948 L103.037,38.948 Z" id="Fill-8"></path>
                <path d="M126.294,38.948 C125.466,39.935 124.253,40.485 122.789,40.485 C120.004,40.485 118.036,38.518 118.036,35.241 L118.036,19.019 C118.036,15.742 120.004,13.722 122.789,13.722 C124.253,13.722 125.466,14.285 126.294,15.287 L126.294,38.948" id="Fill-28"></path>
                <path d="M174.739,0.521 L149.608,0.521 L149.608,7.787 C148.493,7.49 147.313,7.333 146.104,7.333 C145.618,7.333 145.138,7.366 144.663,7.415 C144.614,7.42 144.565,7.428 144.515,7.433 C143.74,7.521 142.986,7.673 142.258,7.888 C142.253,7.89 142.249,7.891 142.244,7.893 C141.356,8.156 140.51,8.508 139.725,8.956 C138.942,9.403 138.222,9.942 137.575,10.565 C137.517,10.621 137.462,10.679 137.405,10.736 C137.15,10.993 136.909,11.264 136.681,11.548 C136.623,11.62 136.564,11.69 136.508,11.764 C136.254,12.098 136.016,12.446 135.801,12.815 C135.79,12.834 135.777,12.85 135.767,12.868 C135.542,13.261 135.341,13.675 135.162,14.107 C135.124,14.201 135.093,14.3 135.056,14.396 C134.929,14.728 134.815,15.07 134.718,15.425 C134.677,15.571 134.641,15.719 134.606,15.869 C134.527,16.204 134.463,16.55 134.411,16.904 C134.389,17.053 134.363,17.2 134.346,17.353 C134.29,17.856 134.253,18.372 134.253,18.91 L134.253,35.296 C134.253,42.724 139.766,46.876 146.104,46.876 C147.313,46.876 148.493,46.716 149.608,46.417 L149.608,48.332 C149.608,48.357 149.611,48.38 149.611,48.404 C149.624,51.092 150.36,53.522 151.545,55.28 C151.553,55.293 151.563,55.304 151.572,55.317 C151.712,55.523 151.857,55.721 152.009,55.908 C152.027,55.93 152.048,55.949 152.066,55.971 C152.21,56.144 152.358,56.312 152.512,56.466 C152.551,56.506 152.593,56.538 152.633,56.576 C152.77,56.707 152.907,56.837 153.05,56.953 C153.109,57.001 153.171,57.038 153.231,57.083 C153.36,57.18 153.488,57.279 153.622,57.363 C153.699,57.412 153.78,57.449 153.859,57.493 C153.979,57.561 154.098,57.633 154.222,57.691 C154.32,57.736 154.422,57.767 154.521,57.805 C154.63,57.848 154.738,57.897 154.849,57.931 C154.98,57.971 155.115,57.994 155.248,58.022 C155.332,58.039 155.414,58.066 155.499,58.079 C155.719,58.112 155.942,58.129 156.168,58.129 L191.499,58.129 C195.119,58.129 198.057,53.743 198.057,48.332 L198.057,0.521 L174.739,0.521 L174.739,0.521 Z M149.608,38.948 C148.778,39.935 147.564,40.485 146.104,40.485 C143.317,40.485 141.35,38.518 141.35,35.241 L141.35,19.019 C141.35,15.742 143.317,13.722 146.104,13.722 C147.564,13.722 148.778,14.285 149.608,15.287 L149.608,38.948 L149.608,38.948 Z" id="Fill-29"></path>
                <path d="M33.822,46.471 L33.815,46.486 L33.815,46.42 C32.702,46.716 31.525,46.876 30.313,46.876 C26.008,46.876 22.085,44.956 20.01,41.397 C19.03,39.718 18.458,37.678 18.458,35.296 L18.458,18.911 C18.458,11.484 23.977,7.333 30.313,7.333 C31.525,7.333 32.702,7.491 33.815,7.789 L33.815,0.855 L21.679,0.855 C20.892,0.855 20.317,0.921 20.019,1.139 C8.327,9.66 2.524,10.879 2.102,11.077 L2.147,16.36 C2.524,16.216 6.006,15.405 9.749,15.664 L9.749,29.677 L9.727,29.677 L9.727,46.32 C9.727,46.32 9.984,55.614 0.813,58.046 L41.931,58.046 C41.931,58.046 34.818,56.815 33.822,46.471" id="Fill-30"></path>
            </g>
            <g id="Group" transform="translate(3.000000, 69.000000)" fill="#ffffff" sketch:type="MSShapeGroup">
                <path d="M3.351,2.19 L0.305,4.881 L0.305,3.441 L3.351,0.822 L4.554,0.822 L4.554,17.629 L3.351,17.629 L3.351,2.19" id="Fill-31"></path>
                <path d="M26.394,17.629 L26.394,7.832 L23.183,14.207 L20.965,14.207 L17.73,7.832 L17.73,17.629 L14.449,17.629 L14.449,0.822 L17.683,0.822 L22.074,9.91 L26.441,0.822 L29.675,0.822 L29.675,17.629 L26.394,17.629" id="Fill-32"></path>
                <path d="M36.644,0.822 L39.925,0.822 L39.925,17.63 L36.644,17.63 L36.644,0.822 Z" id="Fill-33"></path>
                <path d="M46.892,17.629 L46.892,0.822 L50.173,0.822 L50.173,14.702 L57.798,14.702 L57.798,17.629 L46.892,17.629" id="Fill-34"></path>
                <path d="M63.492,17.629 L63.492,0.822 L66.773,0.822 L66.773,14.702 L74.398,14.702 L74.398,17.629 L63.492,17.629" id="Fill-35"></path>
                <path d="M79.5,0.822 L82.782,0.822 L82.782,17.63 L79.5,17.63 L79.5,0.822 Z" id="Fill-36"></path>
                <path d="M99.545,15.93 C98.365,17.11 96.924,17.771 95.013,17.771 C93.101,17.771 91.637,17.11 90.456,15.93 C88.756,14.23 88.804,12.129 88.804,9.225 C88.804,6.322 88.756,4.22 90.456,2.521 C91.637,1.341 93.101,0.679 95.013,0.679 C96.924,0.679 98.365,1.341 99.545,2.521 C101.245,4.22 101.222,6.322 101.222,9.225 C101.222,12.129 101.245,14.23 99.545,15.93 L99.545,15.93 Z M97.114,4.504 C96.641,3.96 95.91,3.607 95.013,3.607 C94.115,3.607 93.36,3.96 92.888,4.504 C92.25,5.211 92.085,5.991 92.085,9.225 C92.085,12.459 92.25,13.238 92.888,13.947 C93.36,14.49 94.115,14.843 95.013,14.843 C95.91,14.843 96.641,14.49 97.114,13.947 C97.752,13.238 97.94,12.459 97.94,9.225 C97.94,5.991 97.752,5.211 97.114,4.504 L97.114,4.504 Z" id="Fill-37"></path>
                <path d="M116.003,17.629 L109.345,7.313 L109.345,17.629 L106.063,17.629 L106.063,0.822 L108.991,0.822 L115.648,11.114 L115.648,0.822 L118.93,0.822 L118.93,17.629 L116.003,17.629" id="Fill-38"></path>
                <path d="M133.618,17.771 C132.013,17.771 130.526,17.158 129.416,16.047 C127.882,14.513 127.858,13.002 127.858,9.225 C127.858,5.424 127.882,3.938 129.416,2.403 C130.526,1.293 132.013,0.679 133.618,0.679 C136.64,0.679 138.765,2.568 139.332,5.589 L138.033,5.589 C137.537,3.253 135.885,1.813 133.618,1.813 C132.415,1.813 131.282,2.261 130.431,3.112 C129.228,4.315 129.133,5.637 129.133,9.225 C129.133,12.813 129.228,14.135 130.431,15.34 C131.282,16.19 132.415,16.638 133.618,16.638 C135.885,16.638 137.584,15.199 138.081,12.862 L139.332,12.862 C138.765,15.883 136.594,17.771 133.618,17.771" id="Fill-39"></path>
                <path d="M152.035,17.771 C148.66,17.771 146.275,15.458 146.275,12.177 L146.275,0.822 L147.551,0.822 L147.551,12.011 C147.551,14.796 149.32,16.638 152.035,16.638 C154.75,16.638 156.52,14.796 156.52,12.011 L156.52,0.822 L157.796,0.822 L157.796,12.177 C157.796,15.458 155.411,17.771 152.035,17.771" id="Fill-40"></path>
                <path d="M171.705,10.5 L166.818,10.5 L166.818,17.629 L165.543,17.629 L165.543,0.822 L171.705,0.822 C174.608,0.822 176.78,2.568 176.78,5.661 C176.78,8.73 174.608,10.5 171.705,10.5 L171.705,10.5 Z M171.563,1.954 L166.818,1.954 L166.818,9.368 L171.563,9.368 C173.9,9.368 175.506,8.186 175.506,5.661 C175.506,3.134 173.9,1.954 171.563,1.954 L171.563,1.954 Z" id="Fill-41"></path>
                <path d="M187.432,17.771 C184.952,17.771 183.37,17.085 181.836,15.552 L182.733,14.655 C184.244,16.165 185.495,16.638 187.501,16.638 C190.169,16.638 191.821,15.363 191.821,13.168 C191.821,12.153 191.538,11.35 190.901,10.807 C190.264,10.311 189.862,10.099 188.47,9.91 L186.51,9.603 C185.235,9.414 184.244,9.013 183.512,8.375 C182.638,7.644 182.189,6.605 182.189,5.284 C182.189,2.45 184.173,0.679 187.407,0.679 C189.484,0.679 190.807,1.245 192.246,2.496 L191.42,3.324 C190.429,2.379 189.319,1.766 187.336,1.766 C184.881,1.766 183.44,3.087 183.44,5.236 C183.44,6.203 183.725,6.935 184.314,7.432 C184.904,7.926 185.872,8.305 186.816,8.47 L188.634,8.752 C190.216,8.965 190.948,9.272 191.633,9.863 C192.553,10.618 193.097,11.774 193.097,13.12 C193.097,15.977 190.948,17.771 187.432,17.771" id="Fill-42"></path>
            </g>
        </g>
    </g>
</svg>